<svg width="1200" height="1500" viewBox="0 0 1200 1500" fill="none" xmlns="http://www.w3.org/2000/svg">
  <rect width="1200" height="1500" fill="#D8C0B0"/>
  <rect x="58" y="58" width="1084" height="1384" rx="40" fill="#E8D5C8"/>
  <rect x="112" y="112" width="976" height="1276" rx="34" fill="#F6EDE6"/>
  <ellipse cx="795" cy="320" rx="180" ry="210" fill="#E3CBBB"/>
  <ellipse cx="885" cy="1090" rx="160" ry="188" fill="#D0A892" fill-opacity="0.45"/>
  <path d="M417 1172C311.4 1128.8 259.667 1022.67 247 975C215.4 854.2 267.5 744.333 297 701.5C409.8 536.3 611.667 529.667 699 551.5C878.2 596.3 958.5 769.5 973 851.5C996.2 978.7 938 1087.33 906 1123C813.6 1230.2 666.5 1254.33 603.5 1251.5C549.5 1248.5 468.333 1193.67 417 1172Z" fill="#B98167"/>
  <path d="M382 885C382 650.28 572.28 460 807 460H853C925.35 460 984 518.65 984 591V944C984 1178.72 793.72 1369 559 1369H513C440.65 1369 382 1310.35 382 1238V885Z" fill="#C99278"/>
  <path d="M351 729C351 478.259 554.259 275 805 275C1055.74 275 1259 478.259 1259 729V771C1259 1006.27 1068.27 1197 833 1197H777C542.826 1197 353 1007.17 353 773V729H351Z" transform="translate(-179 0)" fill="#D6A991"/>
  <path d="M482 735C503.2 683.8 546.5 636.333 565.5 619C628.7 563.8 708.167 548.333 740.5 548C846.5 548.4 919.667 625.833 942.5 664.5C998.1 756.9 970 871.667 948 920C894.4 1040.8 783.333 1079 734.5 1082.5C588.9 1090.1 490.833 994.667 460.5 945.5C432.9 901.5 454.8 800.2 482 735Z" fill="#F0CBB6"/>
  <path d="M530 645C567.2 609 620.167 584.667 642.5 577C684.5 562 734 559.5 754.5 561.5C838.9 569.5 901.333 633.167 922 664.5C921.2 675.7 915.333 685.167 912.5 688.5C878.5 662.9 846 655.167 834 656.5C771.6 637.7 694.333 657.667 663 670C608.2 688.4 553.167 730 532.5 748.5C525.7 724.1 526.333 690 530 645Z" fill="#AF7E68"/>
  <path d="M518 803C539.2 774.6 580.833 748.5 599 739C655 708.6 722 709 749 714.5C821 730.9 872.5 785.333 889 811.5C881.4 823.5 868.167 832.167 862.5 835C831.7 810.6 776.333 801.167 752.5 799.5C672.1 792.7 595 824.333 566 841C535.2 860.2 501.167 899.333 488 916C483.6 900.8 493.5 836.5 518 803Z" fill="#7A5649"/>
  <path d="M549 943C573 923 614.333 905.167 632 899C685.6 881.4 749.333 884 775 889C848.2 903 893.833 948.167 907.5 969C889.9 998.6 830.833 1026 803.5 1036C743.9 1056.8 660.333 1050 626 1042C565.2 1026.8 525 991.667 512.5 975.5C521.7 963.1 540.667 949.167 549 943Z" fill="#E0A592"/>
  <rect x="176" y="118" width="356" height="106" rx="24" fill="#FFF8F3" fill-opacity="0.88"/>
  <rect x="208" y="152" width="130" height="14" rx="7" fill="#D6B09A"/>
  <rect x="208" y="182" width="218" height="12" rx="6" fill="#E8CBBB"/>
</svg>
